<svg height="640" viewBox="0 0 360 640" width="360"
     xmlns="http://www.w3.org/2000/svg">
    <defs>
        <clipPath id="clip-path">
            <rect fill="#fff" height="640" stroke="#707070" stroke-width="1" width="360"/>
        </clipPath>
    </defs>
    <g clip-path="url(#clip-path)">
        <g data-name="Group 527">
            <rect fill="#49358a" height="640" width="360"/>
            <g transform="translate(298.866 -79.946) rotate(-30)">
                <path d="M152.4-175.8c24.7,48,10.1,111.9,5.7,171.3-4.5,59.4,1.1,114.3-23.6,126.7-24.7,12.3-79.6-17.9-141.1-11.3s-129.6,50-172.6,37.7c-43-12.4-60.9-80.5-61.6-149.3s15.7-138.4,58.7-186.4S-69.5-261.5-2.8-258.7,127.8-223.8,152.4-175.8Z"
                      fill="#57429b" transform="translate(-76.416 -25.644)"/>
            </g>
            <g transform="translate(301.728 308.799)">
                <path d="M254.882-94.738C284.071-43.13,277.6,21.418,284.372,92.736S311,241.993,281.815,300.974c-29.039,58.83-106.978,98.7-198.157,111.792-91.179,13.241-195.449-.451-243.145-59.282-47.546-58.981-38.668-163.25,1.655-227.2C-117.659,62.193-46.04,38.42,1.506-13.188c47.7-51.759,71.469-131.2,115.7-151.665C161.3-185.165,225.843-146.5,254.882-94.738Z"
                      fill="#412e7e" transform="translate(0)"/>
            </g>
        </g>
    </g>
</svg>
