<svg height="41.46" viewBox="0 0 159.611 41.46" width="159.611" xmlns="http://www.w3.org/2000/svg">
    <g transform="translate(-100.319 -83.783)">
        <g transform="translate(451.918 -946.651)">
            <path d="M-118.944,1062.563l-7.3-8.53a2.2,2.2,0,0,1-.474-1.911l1.981-8.8a1.178,1.178,0,0,0-1.15-1.437h-10.755v18.473h5.4l-5.4,4.149h16.805A1.179,1.179,0,0,0-118.944,1062.563Z"
                  fill="#715cb5" transform="translate(-73.329 -3.907)"/>
            <path d="M-143.764,1084.008l-2.809-11.387h-1.54a1.133,1.133,0,0,1-1.1-.87l3.045,12.781a1.115,1.115,0,0,0,1.083.856h.241A1.114,1.114,0,0,0-143.764,1084.008Z"
                  fill="#715cb5" transform="translate(-69.04 -14.095)"/>
            <path d="M-143.392,1036.878a1.679,1.679,0,0,0-1.633-1.289h-11.059a1.244,1.244,0,0,0-1.21,1.533l3.194,13.408h0l5.494-9.371-3.892,16.1a1.244,1.244,0,0,0,1.21.956H-138.3Z"
                  fill="#8e7cc6" transform="translate(-66.272 -1.759)"/>
            <path d="M-339.314,1060.606l-6.962-16.564H-351.6l10.241,23.547h4.13l9.921-23.547h-5.2Z"
                  fill="#fff" transform="translate(0 -4.642)"/>
            <path d="M-288.451,1062.962a6.641,6.641,0,0,1-3.534-.991,7.222,7.222,0,0,1-2.565-2.682,7.434,7.434,0,0,1-.947-3.694,7.43,7.43,0,0,1,1.033-3.95,6.9,6.9,0,0,1,2.714-2.576,7.573,7.573,0,0,1,3.577-.883,7.243,7.243,0,0,1,3.843,1.086,7.047,7.047,0,0,1,2.736,3.172h4.939a12.614,12.614,0,0,0-4.364-6.823,11.762,11.762,0,0,0-7.345-2.352,12.357,12.357,0,0,0-6.216,1.6,11.453,11.453,0,0,0-4.429,4.428,12.733,12.733,0,0,0-1.575,6.259,12.6,12.6,0,0,0,1.6,6.259,11.488,11.488,0,0,0,4.408,4.428,12.358,12.358,0,0,0,6.216,1.6,12.559,12.559,0,0,0,5.142-1.043,10.94,10.94,0,0,0,4.056-3.12,13.82,13.82,0,0,0,2.554-5.1h-5.024A6.952,6.952,0,0,1-288.451,1062.962Z"
                  fill="#fff" transform="translate(-17.402 -4.378)"/>
            <path d="M-254.3,1036.47l-4.834-.021v5.366h-3.747v4.726h3.747v9.9a9.38,9.38,0,0,0,1.044,4.514,7.34,7.34,0,0,0,2.927,2.991,8.772,8.772,0,0,0,4.354,1.054h3.172v-4.791h-2.724a4.015,4.015,0,0,1-2.928-.989,3.859,3.859,0,0,1-1.011-2.885v-9.793h6.663v-4.726H-254.3Z"
                  fill="#fff" transform="translate(-30.265 -2.052)"/>
            <path d="M-218.492,1044.865a13.072,13.072,0,0,0-6.344-1.6,12.9,12.9,0,0,0-6.346,1.575,11.477,11.477,0,0,0-4.534,4.406,12.754,12.754,0,0,0-1.6,6.451,11.764,11.764,0,0,0,1.65,6.121,12.129,12.129,0,0,0,4.471,4.4,12.205,12.205,0,0,0,6.185,1.618,13.384,13.384,0,0,0,6.536-1.6,11.513,11.513,0,0,0,4.513-4.407,12.434,12.434,0,0,0,1.619-6.28,12.48,12.48,0,0,0-1.619-6.3A11.72,11.72,0,0,0-218.492,1044.865Zm.3,14.51a7.787,7.787,0,0,1-2.757,2.8,7.207,7.207,0,0,1-3.779,1.043,7.512,7.512,0,0,1-5.429-2.363,7.374,7.374,0,0,1-2.3-5.386,7.26,7.26,0,0,1,1.022-3.769,7.484,7.484,0,0,1,2.778-2.724,7.592,7.592,0,0,1,3.823-1,7.508,7.508,0,0,1,3.842,1.022,7.705,7.705,0,0,1,2.789,2.757,7.3,7.3,0,0,1,1.033,3.8A7.469,7.469,0,0,1-218.194,1059.374Z"
                  fill="#fff" transform="translate(-38.987 -4.378)"/>
            <path d="M-167.089,1043.977l-6.685,14.583-7.645-14.711H-185.5a8.449,8.449,0,0,0-3.066.511,6.838,6.838,0,0,0-2.384,1.575v-1.98l-4.833.021v23.547h4.769v-12.731a6.738,6.738,0,0,1,1.374-4.546,4.838,4.838,0,0,1,3.864-1.586h1.354l8.094,15.244-5.365,12.348h5.28l14.69-32.276Z"
                  fill="#fff" transform="translate(-53.154 -4.576)"/>
            <rect fill="#fff" height="24.335" transform="translate(-325.133 1038.613)" width="4.28"/>
            <path d="M-309.52,1030.434a2.583,2.583,0,0,0-2.583,2.583,2.583,2.583,0,0,0,2.583,2.583,2.584,2.584,0,0,0,2.583-2.583A2.583,2.583,0,0,0-309.52,1030.434Z"
                  fill="#fff" transform="translate(-13.473)"/>
        </g>
        <g transform="translate(451.918 -946.434)">
            <path d="M-118.944,1062.563l-7.3-8.53a2.2,2.2,0,0,1-.474-1.911l1.981-8.8a1.178,1.178,0,0,0-1.15-1.437h-10.755v18.473h5.4l-5.4,4.149h16.805A1.179,1.179,0,0,0-118.944,1062.563Z"
                  fill="#8cf788" transform="translate(-73.328 -3.907)"/>
            <path d="M-143.764,1084.008l-2.809-11.387h-1.54a1.133,1.133,0,0,1-1.1-.87l3.045,12.781a1.115,1.115,0,0,0,1.083.856h.241A1.114,1.114,0,0,0-143.764,1084.008Z"
                  fill="#8cf788" transform="translate(-69.04 -14.095)"/>
            <path d="M-143.392,1036.878a1.68,1.68,0,0,0-1.633-1.289h-11.059a1.244,1.244,0,0,0-1.21,1.533l3.194,13.408h0l5.494-9.371-3.892,16.1a1.244,1.244,0,0,0,1.21.956H-138.3Z"
                  fill="#b5ffb2" transform="translate(-66.272 -1.759)"/>
            <path d="M-339.314,1060.606l-6.962-16.563H-351.6l10.241,23.547h4.13l9.922-23.547h-5.2Z"
                  fill="#fff" transform="translate(0 -4.643)"/>
            <path d="M-288.451,1062.962a6.64,6.64,0,0,1-3.534-.991,7.221,7.221,0,0,1-2.565-2.682,7.433,7.433,0,0,1-.947-3.693,7.431,7.431,0,0,1,1.033-3.95,6.9,6.9,0,0,1,2.714-2.575,7.571,7.571,0,0,1,3.577-.883,7.242,7.242,0,0,1,3.843,1.086,7.048,7.048,0,0,1,2.736,3.172h4.939a12.614,12.614,0,0,0-4.364-6.823,11.762,11.762,0,0,0-7.345-2.352,12.357,12.357,0,0,0-6.216,1.6,11.453,11.453,0,0,0-4.429,4.428,12.733,12.733,0,0,0-1.575,6.259,12.6,12.6,0,0,0,1.6,6.259,11.489,11.489,0,0,0,4.408,4.428,12.358,12.358,0,0,0,6.216,1.6,12.559,12.559,0,0,0,5.142-1.043,10.942,10.942,0,0,0,4.056-3.12,13.818,13.818,0,0,0,2.554-5.1h-5.024A6.952,6.952,0,0,1-288.451,1062.962Z"
                  fill="#fff" transform="translate(-17.402 -4.378)"/>
            <path d="M-254.3,1036.47l-4.834-.021v5.366h-3.747v4.726h3.747v9.9a9.38,9.38,0,0,0,1.044,4.514,7.34,7.34,0,0,0,2.927,2.991,8.772,8.772,0,0,0,4.354,1.054h3.172v-4.791h-2.724a4.016,4.016,0,0,1-2.928-.989,3.86,3.86,0,0,1-1.011-2.885v-9.793h6.663v-4.726H-254.3Z"
                  fill="#fff" transform="translate(-30.264 -2.052)"/>
            <path d="M-218.492,1044.865a13.073,13.073,0,0,0-6.344-1.6,12.9,12.9,0,0,0-6.346,1.575,11.477,11.477,0,0,0-4.534,4.407,12.753,12.753,0,0,0-1.6,6.451,11.764,11.764,0,0,0,1.65,6.122,12.131,12.131,0,0,0,4.471,4.4,12.205,12.205,0,0,0,6.185,1.618,13.384,13.384,0,0,0,6.536-1.6,11.513,11.513,0,0,0,4.513-4.407,12.434,12.434,0,0,0,1.619-6.28,12.479,12.479,0,0,0-1.619-6.3A11.72,11.72,0,0,0-218.492,1044.865Zm.3,14.51a7.787,7.787,0,0,1-2.757,2.8,7.207,7.207,0,0,1-3.779,1.043,7.512,7.512,0,0,1-5.429-2.363,7.374,7.374,0,0,1-2.3-5.386,7.26,7.26,0,0,1,1.022-3.769,7.483,7.483,0,0,1,2.778-2.724,7.59,7.59,0,0,1,3.823-1,7.508,7.508,0,0,1,3.843,1.022,7.707,7.707,0,0,1,2.789,2.757,7.3,7.3,0,0,1,1.033,3.8A7.469,7.469,0,0,1-218.194,1059.374Z"
                  fill="#fff" transform="translate(-38.987 -4.378)"/>
            <path d="M-167.089,1043.977l-6.685,14.583-7.646-14.711H-185.5a8.452,8.452,0,0,0-3.066.511,6.835,6.835,0,0,0-2.384,1.575v-1.98l-4.833.021v23.547h4.769v-12.731a6.738,6.738,0,0,1,1.374-4.546,4.838,4.838,0,0,1,3.864-1.587h1.354l8.094,15.244-5.365,12.349h5.28l14.69-32.276Z"
                  fill="#fff" transform="translate(-53.154 -4.576)"/>
            <rect fill="#fff" height="24.335" transform="translate(-325.133 1038.613)" width="4.28"/>
            <path d="M-309.52,1030.434a2.583,2.583,0,0,0-2.583,2.583,2.583,2.583,0,0,0,2.583,2.583,2.584,2.584,0,0,0,2.583-2.583A2.583,2.583,0,0,0-309.52,1030.434Z"
                  fill="#fff" transform="translate(-13.473 0)"/>
        </g>
    </g>
</svg>
