<svg data-name="Group 609" height="276" id="Group_609" viewBox="0 0 360 276" width="360"
     xmlns="http://www.w3.org/2000/svg">
    <rect fill="#FFFFFF" height="276" width="360"/>
    <path d="M39.36,38.694h0A229.239,229.239,0,0,1,9.664,36.619C3.133,35.736.063,34.972,0,34.213c-.051-.623,1.818-1.193,3.981-1.853,2.35-.717,5.013-1.529,5.682-2.59l.275-.437,0-.007c2.008-3.2,5.744-9.156,11.241-10.972a4.622,4.622,0,0,1,1.424-.263c1.741,0,2.257,1.475,2.555,3.068.05.27.094.54.136.8.2,1.217.367,2.269,1.078,2.269a1.251,1.251,0,0,0,.566-.167c.921-.478,2.193-2.419,3.8-4.875a62.634,62.634,0,0,1,6.246-8.412c2.868-3.066,5.609-4.695,8.381-4.979a14.562,14.562,0,0,1,1.476-.078,9.133,9.133,0,0,1,7.422,3.4c1.783,2.088,3.091,4.988,4.476,8.058.509,1.128,1.035,2.293,1.6,3.461.636,1.309,1.285,2.526,1.913,3.7,2.018,3.783,3.612,6.772,2.684,9.044-.564,1.38-2.067,2.439-4.6,3.237C56.11,37.957,48.654,38.694,39.36,38.694ZM16.525,13.631a6.815,6.815,0,1,1,6.831-6.815A6.83,6.83,0,0,1,16.525,13.631Z"
          fill="#a3a3a3" transform="translate(147 119)"/>
</svg>
