<?xml version="1.0" encoding="utf-8"?>
<!-- Generator: Adobe Illustrator 16.0.0, SVG Export Plug-In . SVG Version: 6.00 Build 0)  -->
<!DOCTYPE svg PUBLIC "-//W3C//DTD SVG 1.1//EN" "http://www.w3.org/Graphics/SVG/1.1/DTD/svg11.dtd">
<svg enable-background="new 0 0 1000 1000" height="1000px" id="Layer_1" version="1.1" viewBox="0 0 1000 1000"
     width="1000px" x="0px" xml:space="preserve" xmlns="http://www.w3.org/2000/svg" y="0px">
<title>type_a</title>
    <g>
	<path d="M664.22,424.95c-0.278,0.43-0.67,0.77-1.148,0.99l-36.65,17.42l-1.04-47.22l38.04,25.02
		c0.61,0.39,1.03,1.01,1.18,1.72C664.75,423.6,664.62,424.33,664.22,424.95z" fill="#ccc"/>
        <path d="M592.98,374.81l-14.12,11.04L455.77,482.03L328.85,206.16c-0.34-0.75-0.3-1.47,0.131-2.13
		c0.539-0.85,1.56-1.39,2.609-1.39c0.58,0,1.13,0.17,1.66,0.5C386.3,236.3,567.92,358.01,592.98,374.81z" fill="#ccc"/>
        <path d="M465.16,519.8l-105.67,50c-0.55,0.28-1.09,0.432-1.62,0.432c-1.39,0-2.46-0.99-2.8-1.972
		c-0.33-0.938-0.021-1.8,0.91-2.528l95.909-74.82L465.16,519.8z" fill="#ccc"/>
        <polygon fill="#ccc"
                 points="621.37,445.71 469.65,517.61 456.13,488.17 597.37,377.73 597.38,377.73 620.31,392.81 	"/>
        <path d="M134,799.62l86.56-225.14c0.636-1.649,2.233-2.728,4-2.7h66c2.331-0.027,4.241,1.841,4.268,4.171
		c0.006,0.521-0.085,1.04-0.268,1.529l-82.4,219.42c-0.624,1.664-2.223,2.76-4,2.738L134,799.62z" fill="#ccc"/>
        <path d="M43.58,571.78h68c1.777-0.021,3.376,1.075,4,2.739l45.52,122c0.362,0.961,0.362,2.021,0,2.979l-38.52,100.2
		l0,0L39.64,577.46c-0.807-2.187,0.312-4.613,2.499-5.419C42.601,571.87,43.088,571.782,43.58,571.78z" fill="#ccc"/>
        <path d="M399.8,712.4l36.32,15.08c1.761,0.713,2.608,2.719,1.896,4.479c-0.006,0.014-0.011,0.026-0.017,0.04
		c-12.174,29.094-34.253,49.28-66.24,60.56c-18.666,6.667-36.413,8.82-53.239,6.461c-16.221-2.058-31.5-8.76-44-19.301
		c-12.56-10.56-21.953-24.666-28.18-42.318c-6.307-17.854-8.086-34.888-5.34-51.102c2.675-16.067,9.972-31.011,21-43
		c11.213-12.427,25.967-21.866,44.26-28.318c17.214-6.08,33.527-8.027,48.94-5.842c15.017,2.016,29.138,8.306,40.68,18.12
		c11.632,10.17,20.6,23.03,26.12,37.46c0.611,1.53,0.059,3.279-1.32,4.182L319.72,734.34c-1.593,1.057-2.026,3.203-0.972,4.796
		c0.157,0.236,0.342,0.453,0.552,0.646c11.126,10.396,27.224,13.506,41.42,8c15.055-5.334,26.613-16.555,34.682-33.66
		C396.179,712.471,398.109,711.717,399.8,712.4z M301.06,674c-3.438,7.84-4.045,17.106-1.818,27.8
		c0.392,1.87,2.225,3.069,4.096,2.678c0.414-0.087,0.81-0.247,1.164-0.478l52-34.3c1.591-1.06,2.021-3.207,0.963-4.798
		c-0.074-0.112-0.155-0.221-0.243-0.322c-3.723-4.688-8.683-8.242-14.318-10.26c-6.691-2.116-13.905-1.876-20.44,0.68
		C312.153,658.613,305.02,664.946,301.06,674z" fill="#ccc"/>
        <path d="M502.22,660.7c-10.372-0.271-20.265,4.359-26.7,12.5c-6.84,8.333-10.26,19.112-10.26,32.34
		c0,13.467,3.42,24.307,10.26,32.521c6.489,8.05,16.365,12.605,26.7,12.319c15.682,0,27.228-6,34.642-18
		c0.915-1.578,2.927-2.131,4.52-1.24l39.04,22.36c1.63,0.92,2.218,2.979,1.32,4.62c-7.324,12.771-18.188,23.146-31.28,29.88
		c-14.667,7.76-31.78,11.64-51.34,11.64c-18.946,0-35.613-3.88-50-11.64c-14.083-7.472-25.677-18.892-33.36-32.86
		c-7.84-14.093-11.76-30.513-11.76-49.26c0-18.934,4-35.646,12-50.14c7.722-14.229,19.437-25.888,33.7-33.54
		c14.479-7.867,31.192-11.8,50.14-11.8c17.123-0.322,34.058,3.615,49.28,11.46c12.999,6.786,23.955,16.913,31.74,29.34
		c0.983,1.625,0.465,3.74-1.16,4.725c-0.021,0.013-0.04,0.023-0.062,0.035L541.2,678.32c-1.521,0.854-3.443,0.443-4.48-0.96
		C528.661,666.47,515.761,660.24,502.22,660.7z" fill="#ccc"/>
        <path d="M673.62,784.74c0.472,1.554-0.213,3.225-1.64,4c-6.52,3.431-13.438,6.037-20.602,7.76
		c-8.62,2.163-17.473,3.259-26.36,3.26c-18.666,0-33.727-5.473-45.18-16.42c-11.453-10.945-17.16-26.12-17.12-45.52V605.52
		c0-1.233,0.665-2.372,1.74-2.979l53.38-30.32c1.639-0.938,3.729-0.371,4.668,1.269c0.299,0.521,0.454,1.111,0.452,1.713v42
		c0,1.889,1.531,3.42,3.42,3.42h41.4c1.889,0,3.42,1.531,3.42,3.42v33.54c0,1.889-1.531,3.42-3.42,3.42h-41.4
		c-1.889,0-3.42,1.531-3.42,3.42v63.66c0,7.307,1.6,12.84,4.8,16.6c3.345,3.831,8.264,5.91,13.34,5.642
		c6.247-0.155,12.388-1.656,18-4.4c1.719-0.759,3.727,0.021,4.484,1.737c0.071,0.163,0.131,0.331,0.176,0.503L673.62,784.74z" fill="#ccc"/>
        <path d="M751.62,620.64c9.58-5.278,20.285-8.187,31.22-8.479c1.888-0.056,3.464,1.431,3.52,3.317
		c0.001,0.04,0.002,0.081,0.002,0.121V664.2c0.012,1.878-1.5,3.409-3.378,3.422c-0.049,0-0.096,0-0.144-0.002
		c-1.613,0-3.52-0.033-5.72-0.102c-14.373,0-26.007,3.334-34.9,10c-8.736,6.521-14.314,16.429-15.358,27.28
		c-0.012,0.174-0.012,0.348,0,0.521v90.88c0,1.889-1.531,3.42-3.42,3.42h-54c-1.891,0-3.422-1.531-3.422-3.42V623.76
		c0.002-1.756,1.333-3.226,3.08-3.398l54-5.5c1.881-0.188,3.557,1.184,3.743,3.062c0.013,0.112,0.019,0.226,0.019,0.337V634.4
		c0.038,1.877,1.592,3.366,3.469,3.328c0.979-0.021,1.9-0.461,2.531-1.21C738.04,630.075,744.408,624.685,751.62,620.64z" fill="#ccc"/>
        <path d="M959.42,615.5v178.3c0,1.89-1.531,3.42-3.42,3.42h-54c-1.889,0-3.42-1.53-3.42-3.42V782.94
		c0.007-1.878-1.51-3.405-3.388-3.412c-0.896-0.003-1.755,0.346-2.394,0.972c-5.146,5.114-11.116,9.326-17.66,12.46
		c-9.686,4.549-20.279,6.833-30.979,6.68c-15.889,0.325-31.547-3.834-45.18-12c-13.125-8.077-23.655-19.754-30.342-33.64
		c-7.187-14.48-10.778-31.193-10.778-50.14c0-18.667,3.532-35.095,10.6-49.28c6.62-13.657,17.09-25.079,30.12-32.86
		c13.702-7.972,29.33-12.024,45.18-11.72c10.769-0.141,21.423,2.2,31.142,6.84c6.594,3.197,12.614,7.461,17.818,12.62
		c1.341,1.314,3.494,1.293,4.81-0.048c0.626-0.639,0.975-1.498,0.972-2.393V615.48c-0.033-1.89,1.47-3.447,3.358-3.48
		c0.048-0.001,0.095-0.001,0.142,0h54c1.889-0.001,3.42,1.53,3.421,3.419C959.421,615.446,959.421,615.473,959.42,615.5z
		 M886.2,740.76c7.026-7.253,11.126-16.88,12.3-28.88c0-0.14,0-0.28,0-0.42v-12c0-0.14,0-0.28,0-0.42
		c-1.174-12-5.273-21.627-12.3-28.88c-7.062-7.307-16.884-11.287-27.04-10.96c-11.092-0.345-21.736,4.382-28.92,12.84
		c-7.414,8.56-11.12,19.68-11.12,33.36c0,13.68,3.706,24.8,11.12,33.358c7.184,8.458,17.828,13.186,28.92,12.84
		C869.298,751.958,879.116,748.021,886.2,740.76z" fill="#ccc"/>
</g>
</svg>
